<svg xmlns="http://www.w3.org/2000/svg" width="31.004" height="31" viewBox="0 0 31.004 31">
  <path id="_211830_telephone_icon" data-name="211830_telephone_icon" d="M109.516,102.593c-1.286-1.321-4.941-3.8-7.336-3.8a2.606,2.606,0,0,0-1.436.379,7.882,7.882,0,0,1-2.554,1.33c-.247,0-.511-.22-1.092-.722L97,99.7a30.558,30.558,0,0,1-2.58-2.413l-.159-.167c-.114-.114-.211-.22-.308-.317-.546-.564-.942-.969-2.343-2.554l-.062-.07c-.669-.757-1.11-1.251-1.136-1.612s.282-.925,1.066-1.99c.951-1.286.986-2.871.114-4.712a21.434,21.434,0,0,0-2.836-4.069l-.088-.106A3.8,3.8,0,0,0,85.685,80.1a5.287,5.287,0,0,0-2.818,1.022c-.044.026-.088.062-.132.088a5.652,5.652,0,0,0-2.448,2.924c-.5,1.629-.837,3.743,1.568,8.138a39.323,39.323,0,0,0,6.957,9.432,42.035,42.035,0,0,0,6.869,5.848c3.118,2.255,6.112,3.549,8.208,3.549,1.946,0,3.479,0,5.663-2.633C111.841,105.7,110.89,104.011,109.516,102.593Z" transform="translate(-79.927 -80.1)" fill="#2f2529"/>
</svg>
