<svg xmlns="http://www.w3.org/2000/svg" width="38.944" height="38.944" viewBox="0 0 38.944 38.944">
  <path id="black-instagram-icon" d="M34.186,0a4.76,4.76,0,0,1,4.758,4.758V34.186a4.76,4.76,0,0,1-4.758,4.758H4.758A4.76,4.76,0,0,1,0,34.186V4.758A4.76,4.76,0,0,1,4.758,0H34.186ZM19.472,6.161c-3.615,0-4.068.015-5.488.08a9.769,9.769,0,0,0-3.231.619A6.806,6.806,0,0,0,6.86,10.753a9.773,9.773,0,0,0-.619,3.231c-.065,1.42-.08,1.873-.08,5.488s.015,4.068.08,5.488a9.773,9.773,0,0,0,.619,3.231,6.807,6.807,0,0,0,3.893,3.893,9.771,9.771,0,0,0,3.231.619c1.42.065,1.873.08,5.488.08s4.068-.015,5.488-.08a9.771,9.771,0,0,0,3.231-.619,6.807,6.807,0,0,0,3.893-3.893A9.771,9.771,0,0,0,32.7,24.96c.065-1.42.08-1.873.08-5.488s-.015-4.068-.08-5.488a9.771,9.771,0,0,0-.619-3.231A6.806,6.806,0,0,0,28.191,6.86a9.769,9.769,0,0,0-3.231-.619C23.54,6.176,23.087,6.161,19.472,6.161Zm0,2.4c3.554,0,3.975.014,5.379.078a7.37,7.37,0,0,1,2.472.458,4.408,4.408,0,0,1,2.526,2.526,7.366,7.366,0,0,1,.458,2.472c.064,1.4.078,1.825.078,5.379s-.014,3.975-.078,5.379a7.366,7.366,0,0,1-.458,2.472,4.408,4.408,0,0,1-2.526,2.526,7.366,7.366,0,0,1-2.472.458c-1.4.064-1.824.078-5.379.078s-3.975-.014-5.379-.078a7.366,7.366,0,0,1-2.472-.458A4.408,4.408,0,0,1,9.1,27.322a7.367,7.367,0,0,1-.458-2.472c-.064-1.4-.078-1.825-.078-5.379s.014-3.975.078-5.379A7.367,7.367,0,0,1,9.1,11.622,4.408,4.408,0,0,1,11.622,9.1a7.37,7.37,0,0,1,2.472-.458c1.4-.064,1.825-.078,5.379-.078Zm0,4.077a6.835,6.835,0,1,0,6.835,6.835,6.835,6.835,0,0,0-6.835-6.835Zm0,11.272a4.437,4.437,0,1,1,4.437-4.437A4.437,4.437,0,0,1,19.472,23.909Zm8.7-11.542a1.6,1.6,0,1,1-1.6-1.6A1.6,1.6,0,0,1,28.175,12.367Z" fill-rule="evenodd"/>
</svg>
