<svg xmlns="http://www.w3.org/2000/svg" width="49.047" height="47.974" viewBox="0 0 49.047 47.974">
  <g id="white-facebook" transform="translate(-3.823 -5.36)">
    <path id="Path_5" data-name="Path 5" d="M43.911,28.21H12.782a8.962,8.962,0,0,0-8.959,8.962v7.2a8.961,8.961,0,0,0,8.959,8.961H43.911a8.962,8.962,0,0,0,8.959-8.961v-7.2A8.963,8.963,0,0,0,43.911,28.21ZM19.322,33.816H16.428V48.2h-2.8V33.816H10.74V31.37h8.582v2.446ZM27.5,48.2h-2.48v-1.36a5.306,5.306,0,0,1-1.432,1.146,2.989,2.989,0,0,1-1.441.4,1.544,1.544,0,0,1-1.3-.555,2.676,2.676,0,0,1-.435-1.664V35.782h2.48v9.523a1.062,1.062,0,0,0,.154.636.609.609,0,0,0,.51.2,1.41,1.41,0,0,0,.691-.26,3.35,3.35,0,0,0,.77-.668V35.781H27.5Zm9-2.563a3.093,3.093,0,0,1-.584,2.021,2.061,2.061,0,0,1-1.686.7,2.955,2.955,0,0,1-1.3-.27,3.189,3.189,0,0,1-1.061-.841v.951h-2.51V31.37h2.51v5.419a3.871,3.871,0,0,1,1.062-.861,2.435,2.435,0,0,1,1.146-.295,2.143,2.143,0,0,1,1.8.791,3.7,3.7,0,0,1,.623,2.32v6.889Zm8.6-3.345H40.358v2.339a2.706,2.706,0,0,0,.242,1.359.926.926,0,0,0,.842.378,1.026,1.026,0,0,0,.863-.321,2.68,2.68,0,0,0,.246-1.416v-.565H45.1V44.7a3.979,3.979,0,0,1-.936,2.878,3.7,3.7,0,0,1-2.783.959,3.42,3.42,0,0,1-2.627-1.021A3.963,3.963,0,0,1,37.8,44.7V39.124a3.5,3.5,0,0,1,1.057-2.633,3.742,3.742,0,0,1,2.715-1.015,3.481,3.481,0,0,1,2.619.941,3.731,3.731,0,0,1,.914,2.706Z" fill="#fff"/>
    <path id="Path_6" data-name="Path 6" d="M41.466,37.646a.985.985,0,0,0-.85.343,1.807,1.807,0,0,0-.258,1.112v1.255h2.193V39.1a1.816,1.816,0,0,0-.262-1.112A.95.95,0,0,0,41.466,37.646Z" fill="#fff"/>
    <path id="Path_7" data-name="Path 7" d="M32.909,37.6a1.222,1.222,0,0,0-.525.12,1.776,1.776,0,0,0-.512.38v7.733a2.119,2.119,0,0,0,.588.442,1.458,1.458,0,0,0,.6.133.806.806,0,0,0,.67-.266,1.362,1.362,0,0,0,.213-.854V38.881a1.484,1.484,0,0,0-.26-.955A.961.961,0,0,0,32.909,37.6Z" fill="#fff"/>
    <path id="Path_8" data-name="Path 8" d="M16.858,23.9H20v-7.69L23.663,5.36h-3.2l-1.946,7.41h-.2L16.28,5.36H13.113l3.745,11.194Z" fill="#fff"/>
    <path id="Path_9" data-name="Path 9" d="M27.923,24.243a4.256,4.256,0,0,0,2.992-1A3.564,3.564,0,0,0,32,20.492V13.428a3.291,3.291,0,0,0-1.1-2.559,4.118,4.118,0,0,0-2.844-.991,4.587,4.587,0,0,0-3.033.941,3.127,3.127,0,0,0-1.127,2.531v7.088a3.621,3.621,0,0,0,1.1,2.773A4.121,4.121,0,0,0,27.923,24.243Zm-1.158-11a.931.931,0,0,1,.316-.725,1.238,1.238,0,0,1,.834-.273,1.382,1.382,0,0,1,.9.273.9.9,0,0,1,.34.725V20.7a1.123,1.123,0,0,1-.336.864,1.258,1.258,0,0,1-.9.313,1.121,1.121,0,0,1-.854-.31,1.2,1.2,0,0,1-.3-.868v-7.45Z" fill="#fff"/>
    <path id="Path_10" data-name="Path 10" d="M36.214,24.1a3.514,3.514,0,0,0,1.619-.438,5.921,5.921,0,0,0,1.609-1.276V23.9h2.793V10.224H39.442V20.6a3.865,3.865,0,0,1-.859.735,1.619,1.619,0,0,1-.781.288.672.672,0,0,1-.568-.221,1.117,1.117,0,0,1-.18-.7V10.224H34.265V21.653a2.885,2.885,0,0,0,.488,1.828A1.759,1.759,0,0,0,36.214,24.1Z" fill="#fff"/>
  </g>
</svg>
