<svg xmlns="http://www.w3.org/2000/svg" width="38.944" height="38.944" viewBox="0 0 38.944 38.944">
  <path id="white-twitter" d="M19.472,0A19.472,19.472,0,1,1,0,19.472,19.481,19.481,0,0,1,19.472,0ZM15.909,29.743A13.268,13.268,0,0,0,29.266,16.386c0-.2,0-.409-.01-.6A9.618,9.618,0,0,0,31.6,13.348a9.529,9.529,0,0,1-2.7.74,4.692,4.692,0,0,0,2.064-2.6,9.507,9.507,0,0,1-2.979,1.139,4.7,4.7,0,0,0-8.12,3.213A4.3,4.3,0,0,0,20,16.911,13.318,13.318,0,0,1,10.32,12a4.692,4.692,0,0,0,1.46,6.26,4.612,4.612,0,0,1-2.122-.584v.058a4.7,4.7,0,0,0,3.768,4.605,4.68,4.68,0,0,1-1.236.166,4.482,4.482,0,0,1-.886-.088,4.688,4.688,0,0,0,4.381,3.262,9.437,9.437,0,0,1-5.832,2.006,8.537,8.537,0,0,1-1.12-.068A13.08,13.08,0,0,0,15.909,29.743Z" fill="#fff" fill-rule="evenodd"/>
</svg>
